<svg width="17" height="16" viewBox="0 0 17 16" fill="none" xmlns="http://www.w3.org/2000/svg">
<path d="M14.6005 12.2881L14.5331 12.3887L13.5331 13.8887L13.2001 14.3877L12.8671 13.8887L11.9335 12.4883V13C11.9335 13.3713 11.7859 13.7277 11.5233 13.9902C11.2608 14.2527 10.9043 14.4004 10.5331 14.4004H3.20007C2.82877 14.4004 2.47239 14.2528 2.20984 13.9902C1.94729 13.7277 1.79968 13.3713 1.79968 13V3C1.79968 2.6287 1.94729 2.27232 2.20984 2.00977C2.47239 1.74721 2.82877 1.59961 3.20007 1.59961H10.5331C10.9043 1.59961 11.2608 1.74732 11.5233 2.00977C11.7859 2.27232 11.9335 2.6287 11.9335 3V4.74023C12.0017 4.59452 12.0939 4.45974 12.2098 4.34375L12.3124 4.25C12.5615 4.04584 12.8752 3.93359 13.2001 3.93359C13.5714 3.93359 13.9278 4.0812 14.1903 4.34375L14.2831 4.44629C14.4871 4.6953 14.6004 5.0083 14.6005 5.33301V12.2881Z" stroke="white" stroke-width="0.8"/>
</svg>
