<svg width="48" height="59" viewBox="0 0 48 59" fill="none" xmlns="http://www.w3.org/2000/svg">
<g clip-path="url(#clip0_1_736)">
<path d="M11.5088 57.45C11.8988 57.74 12.4388 57.66 12.7188 57.28C15.2988 53.79 22.2088 54.71 25.7888 49.88C28.5088 46.21 26.2288 40.86 24.9188 39.65C24.8788 39.6 24.8288 39.56 24.7888 39.53C24.3988 39.24 23.8588 39.32 23.5788 39.7C23.4288 39.91 23.3788 40.17 23.4388 40.43C23.6988 41.41 23.8088 43.78 22.8088 45.13C21.1688 47.34 18.4688 46.6 18.4688 46.6C22.1388 44.15 18.5088 40.84 20.1688 36.95C20.3288 36.58 20.2188 36.15 19.8888 35.9C19.7388 35.79 19.5588 35.73 19.3788 35.73C19.3588 35.73 19.3388 35.73 19.3188 35.73C19.1488 35.72 14.7988 35.46 11.7888 39.51C10.5588 41.17 9.29882 44.63 8.96882 46.34C8.87882 46.68 9.00882 47.05 9.29882 47.26C9.63882 47.51 10.0988 47.49 10.4088 47.21C10.4088 47.21 11.7788 46.04 13.4388 46.07C11.0288 49.32 10.9288 54.44 11.1588 56.75C11.1588 56.79 11.1588 56.83 11.1588 56.87C11.1888 57.1 11.3188 57.31 11.5088 57.45Z" fill="#AB475F"/>
<path d="M12.0284 58.16C11.7384 58.16 11.4384 58.07 11.1884 57.88C10.8884 57.65 10.6784 57.31 10.6284 56.94C10.6284 56.89 10.6184 56.83 10.6184 56.78C10.5484 56.04 10.1384 50.72 12.3484 46.77C11.4984 47.03 10.8684 47.53 10.7684 47.61C10.2784 48.07 9.51835 48.11 8.97835 47.7C8.51835 47.36 8.30835 46.79 8.44835 46.24V46.19C8.80835 44.43 10.0684 40.94 11.3684 39.18C14.4384 35.03 18.8884 35.16 19.3384 35.18C19.3584 35.18 19.3784 35.18 19.3984 35.18C19.6984 35.18 19.9784 35.28 20.2184 35.46C20.6284 35.76 20.8284 36.24 20.7884 36.72L20.8384 36.76L20.6784 37.15C20.0284 38.67 20.2684 40.12 20.5084 41.52C20.7784 43.11 21.0484 44.75 19.7984 46.17C20.5884 46.12 21.6284 45.84 22.3984 44.8C23.2684 43.63 23.1784 41.46 22.9384 40.56L22.8684 40.31L22.8884 40.28C22.8684 39.96 22.9684 39.64 23.1584 39.38C23.6184 38.76 24.4984 38.63 25.1184 39.1C25.1884 39.15 25.2584 39.21 25.3184 39.28C26.0484 39.97 26.9984 41.71 27.4084 43.74C27.7584 45.49 27.8484 48.03 26.2384 50.2C24.1984 52.95 21.1484 53.93 18.4584 54.79C16.2984 55.48 14.2484 56.14 13.1684 57.6C12.8984 57.97 12.4784 58.16 12.0484 58.16H12.0284ZM11.8284 57.02C11.9784 57.13 12.1784 57.1 12.2884 56.96C13.5784 55.22 15.7784 54.51 18.1184 53.77C20.7784 52.92 23.5284 52.03 25.3584 49.57C27.8484 46.21 25.7184 41.13 24.5584 40.06L24.5184 40.02C24.5184 40.02 24.4884 39.99 24.4684 39.97C24.3184 39.86 24.1184 39.89 24.0084 40.03C23.9484 40.11 23.9384 40.2 23.9584 40.3L24.0184 40.52C24.2484 41.66 24.3284 44 23.2484 45.45C21.4084 47.93 18.4584 47.15 18.3384 47.12L17.1984 46.81L18.1784 46.16C19.9784 44.96 19.7584 43.6 19.4384 41.72C19.2084 40.35 18.9484 38.81 19.5284 37.15H19.5084L19.6784 36.75C19.7384 36.61 19.6884 36.45 19.5684 36.35C19.5084 36.31 19.4384 36.29 19.3684 36.28H19.3484H19.3184H19.2884C19.1184 36.27 15.0484 36.04 12.2284 39.85C11.0484 41.44 9.80835 44.89 9.49835 46.46V46.52C9.45835 46.64 9.50835 46.78 9.61835 46.85C9.73835 46.94 9.89835 46.94 10.0084 46.85L10.0484 46.81C10.1084 46.76 11.5984 45.51 13.4384 45.54L14.4784 45.56L13.8584 46.4C12.8084 47.81 11.1784 51.57 11.6784 56.71V56.76C11.6784 56.76 11.6784 56.79 11.6784 56.8C11.6884 56.89 11.7384 56.97 11.8084 57.03L11.8284 57.02Z" fill="black"/>
<path d="M10.5396 46.8199C10.6096 46.7599 11.5796 45.9599 12.8296 45.8099C13.0196 45.7899 13.1496 45.9999 13.0396 46.1599C11.0996 49.1299 11.0196 53.4999 11.2196 55.5299C11.2196 55.5699 11.2196 55.5999 11.2196 55.6399C11.2496 55.8499 11.4196 56.7699 11.5896 56.8999C11.9396 57.1599 12.3796 56.3699 12.6396 56.0199C14.9996 52.8399 21.2996 53.6699 24.5596 49.2699C27.0396 45.9299 24.9596 41.0399 23.7696 39.9399C23.7296 39.8999 23.6896 39.8599 23.6496 39.8299C23.2996 39.5699 22.7996 39.6399 22.5496 39.9899C22.4096 40.1799 22.3596 40.4199 22.4196 40.6499C22.6596 41.5399 22.7596 43.6999 21.8496 44.9299C20.7896 46.3599 19.2496 46.4399 18.4296 46.3599C18.2296 46.3399 18.1496 46.0899 18.3096 45.9599C20.9396 43.7599 17.9996 40.8599 19.4396 37.4699C19.5896 37.1299 19.4796 36.7399 19.1796 36.5199C19.0496 36.4199 18.8796 36.3699 18.7196 36.3599C18.6996 36.3599 18.6796 36.3599 18.6696 36.3599C18.5196 36.3499 14.5396 36.1099 11.7996 39.8099C10.6796 41.3199 9.73958 43.9499 9.43958 45.5099C9.43958 45.5099 9.17958 44.8299 9.24958 45.3399C9.32958 45.9299 9.06958 45.3999 9.06958 45.4099L9.53958 46.6799C9.72958 47.0499 10.2296 47.1299 10.5296 46.8499L10.5396 46.8199Z" fill="#FC465D"/>
<path d="M14.46 52.12C14.85 52.41 15.39 52.33 15.67 51.95C18.25 48.46 25.16 49.38 28.74 44.55C31.46 40.88 29.18 35.53 27.87 34.32C27.83 34.27 27.78 34.23 27.74 34.2C27.35 33.91 26.81 33.99 26.53 34.37C26.38 34.58 26.33 34.84 26.39 35.1C26.65 36.08 26.76 38.45 25.76 39.8C24.12 42.01 21.42 41.27 21.42 41.27C25.09 38.82 21.46 35.51 23.12 31.62C23.28 31.25 23.17 30.82 22.84 30.57C22.69 30.46 22.51 30.4 22.33 30.4C22.31 30.4 22.29 30.4 22.27 30.4C22.1 30.39 17.75 30.13 14.74 34.18C13.51 35.84 12.25 39.3 11.92 41.01C11.83 41.35 11.96 41.72 12.25 41.93C12.59 42.18 13.05 42.16 13.36 41.88C13.36 41.88 14.73 40.71 16.39 40.74C13.98 43.99 13.88 49.11 14.11 51.42C14.11 51.46 14.11 51.5 14.11 51.54C14.14 51.77 14.27 51.98 14.46 52.12Z" fill="black"/>
<path d="M41.1318 16.2613L34.72 12.0157L16.8656 38.9805L23.2775 43.226L41.1318 16.2613Z" fill="black"/>
<path d="M45.8693 0.179932C45.8693 0.239932 45.8693 0.239932 45.8693 0.179932L44.0693 6.98993L40.2493 4.42993L45.8693 0.179932Z" fill="#030325"/>
<path d="M19.6997 34.91L16.4797 33.16L31.0397 11.49L38.2997 7.23999L19.6997 34.91Z" fill="black"/>
<path d="M24.4407 37.9799L27.3007 40.2499L41.0807 18.2299L42.6307 10.0399L24.4407 37.9799Z" fill="black"/>
<path d="M41.4402 6.69019L21.2402 37.2002L18.7102 35.5202L35.0402 9.82019L41.4402 6.69019Z" fill="#0992E2"/>
<path d="M41.419 13.3099L24.039 39.5599L21.509 37.8799L41.709 7.37988L41.419 13.3099Z" fill="#0992E2"/>
<mask id="mask0_1_736" style="mask-type:luminance" maskUnits="userSpaceOnUse" x="30" y="4" width="15" height="15">
<path d="M30.8704 11.7399L31.0404 11.4899L40.7504 4.00989C41.1004 4.67989 41.6304 5.22989 42.2804 5.59989C42.8704 6.05989 43.5904 6.33989 44.3304 6.40989L41.0804 18.2299L40.9104 18.4799C40.5204 18.5499 40.1104 18.4699 39.7904 18.2399C38.7504 17.5499 39.4304 16.5399 38.3804 15.8499C37.3304 15.1599 36.6804 16.1499 35.6404 15.4599C34.6004 14.7699 35.2904 13.7599 34.2504 13.0699C33.2104 12.3799 32.5404 13.3799 31.5104 12.6799C31.1804 12.4599 30.9504 12.1199 30.8804 11.7299L30.8704 11.7399Z" fill="white"/>
</mask>
<g mask="url(#mask0_1_736)">
<path d="M39.7804 18.5499L38.2904 17.5499L44.3304 8.55994V18.5499H39.7804Z" fill="#EBD9B3"/>
<path d="M38.2897 17.5499L38.2297 17.5099L44.3297 8.42993V8.55993L38.2897 17.5499Z" fill="#EBD9B3"/>
<path d="M38.2311 17.5099L38.1711 17.4699L44.3311 8.29993V8.42993L38.2311 17.5099Z" fill="#EAD8B2"/>
<path d="M38.1704 17.4699L38.1104 17.4199L44.3304 8.15991V8.29991L38.1704 17.4699Z" fill="#E9D7B1"/>
<path d="M38.11 17.4199L38.05 17.3799L44.33 8.02991V8.15991L38.11 17.4199Z" fill="#E9D6B0"/>
<path d="M38.0495 17.3799L37.9895 17.3399L44.3295 7.8999V8.0299L38.0495 17.3799Z" fill="#E8D6AF"/>
<path d="M37.9909 17.3401L37.9309 17.3001L44.3309 7.77014V7.90014L37.9909 17.3401Z" fill="#E7D5AE"/>
<path d="M37.9304 17.2999L37.8604 17.2599L44.3304 7.63989V7.76989L37.9304 17.2999Z" fill="#E6D4AD"/>
<path d="M37.86 17.2599L37.8 17.2199L44.33 7.50989V7.63989L37.86 17.2599Z" fill="#E5D3AC"/>
<path d="M37.7995 17.2199L37.7395 17.1799L44.3295 7.37988V7.50988L37.7995 17.2199Z" fill="#E5D2AB"/>
<path d="M37.7409 17.1796L37.6809 17.1396L44.3309 7.24963V7.37963L37.7409 17.1796Z" fill="#E4D1AA"/>
<path d="M37.6804 17.1399L37.6204 17.0999L44.3304 7.10986V7.24986L37.6804 17.1399Z" fill="#E3D0A9"/>
<path d="M37.6198 17.0999L37.5598 17.0599L44.3298 6.97986V7.10986L37.6198 17.0999Z" fill="#E2CFA8"/>
<path d="M37.5612 17.0599L37.5012 17.0199L44.3312 6.84985V6.97985L37.5612 17.0599Z" fill="#E1CFA7"/>
<path d="M37.5007 17.0198L37.4407 16.9798L44.3307 6.71985V6.84985L37.5007 17.0198Z" fill="#E1CEA6"/>
<path d="M37.4404 16.9798L37.3804 16.9298L44.3304 6.58984V6.71984L37.4404 16.9798Z" fill="#E0CDA5"/>
<path d="M37.3796 16.93L37.3196 16.89L44.3296 6.45996V6.58996L37.3796 16.93Z" fill="#DFCCA4"/>
<path d="M37.321 16.8898L37.261 16.8498L44.331 6.32983V6.45983L37.321 16.8898Z" fill="#DECBA3"/>
<path d="M37.2604 16.8499L37.2004 16.8099L44.3304 6.18994V6.32994L37.2604 16.8499Z" fill="#DDCAA2"/>
<path d="M37.1999 16.8099L37.1399 16.7699L44.2999 6.10986L44.3299 6.12986V6.18986L37.1999 16.8099Z" fill="#DDC9A1"/>
<path d="M44.2348 6.06585L37.0715 16.734L37.1296 16.773L44.2929 6.10487L44.2348 6.06585Z" fill="#DCC8A0"/>
<path d="M44.1782 6.02386L37.0149 16.692L37.073 16.731L44.2363 6.06288L44.1782 6.02386Z" fill="#DBC89F"/>
<path d="M44.1118 5.98113L36.9485 16.6493L37.0066 16.6883L44.1699 6.02016L44.1118 5.98113Z" fill="#DAC79E"/>
<path d="M44.0551 5.93865L36.8918 16.6068L36.95 16.6458L44.1133 5.97768L44.0551 5.93865Z" fill="#D9C69D"/>
<path d="M43.9985 5.89617L36.8352 16.5643L36.8933 16.6034L44.0566 5.93519L43.9985 5.89617Z" fill="#D9C59C"/>
<path d="M43.9323 5.85369L36.769 16.5219L36.8271 16.5609L43.9904 5.89271L43.9323 5.85369Z" fill="#D8C49B"/>
<path d="M43.8756 5.81121L36.7123 16.4794L36.7704 16.5184L43.9337 5.85023L43.8756 5.81121Z" fill="#D7C39A"/>
<path d="M43.8189 5.77874L36.6556 16.4469L36.7138 16.4859L43.8771 5.81776L43.8189 5.77874Z" fill="#D6C299"/>
<path d="M43.7523 5.73626L36.589 16.4044L36.6471 16.4434L43.8104 5.77528L43.7523 5.73626Z" fill="#D5C298"/>
<path d="M43.688 5.68816L36.5247 16.3563L36.5828 16.3953L43.7461 5.72718L43.688 5.68816Z" fill="#D5C197"/>
<path d="M43.6255 5.65398L36.4622 16.3221L36.5203 16.3612L43.6836 5.693L43.6255 5.65398Z" fill="#D4C096"/>
<path d="M43.5688 5.61151L36.4055 16.2797L36.4636 16.3187L43.6269 5.65053L43.5688 5.61151Z" fill="#D3BF95"/>
<path d="M43.5024 5.56902L36.3391 16.2372L36.3972 16.2762L43.5605 5.60805L43.5024 5.56902Z" fill="#D2BE94"/>
<path d="M43.4458 5.52654L36.2825 16.1947L36.3406 16.2337L43.5039 5.56556L43.4458 5.52654Z" fill="#D1BD93"/>
<path d="M43.3891 5.49395L36.2258 16.1621L36.2839 16.2011L43.4472 5.53297L43.3891 5.49395Z" fill="#D1BC92"/>
<path d="M43.3227 5.45147L36.1594 16.1196L36.2175 16.1587L43.3808 5.49049L43.3227 5.45147Z" fill="#D0BB91"/>
<path d="M43.2661 5.40899L36.1028 16.0771L36.1609 16.1162L43.3242 5.44801L43.2661 5.40899Z" fill="#CFBB90"/>
<path d="M43.2094 5.36651L36.0461 16.0347L36.1043 16.0737L43.2676 5.40553L43.2094 5.36651Z" fill="#CEBA8F"/>
<path d="M43.1411 5.32403L35.9778 15.9922L36.0359 16.0312L43.1992 5.36305L43.1411 5.32403Z" fill="#CDB98E"/>
<path d="M43.0844 5.28155L35.9211 15.9497L35.9793 15.9887L43.1426 5.32057L43.0844 5.28155Z" fill="#CCB88D"/>
<path d="M43.0278 5.23907L35.8645 15.9072L35.9226 15.9462L43.0859 5.27809L43.0278 5.23907Z" fill="#CCB78C"/>
<path d="M42.9536 5.20098L35.7903 15.8691L35.8484 15.9082L43.0117 5.24L42.9536 5.20098Z" fill="#CBB68B"/>
<path d="M42.8911 5.1668L35.7278 15.835L35.7859 15.874L42.9492 5.20583L42.8911 5.1668Z" fill="#CAB58A"/>
<path d="M42.8344 5.12432L35.6711 15.7925L35.7293 15.8315L42.8926 5.16334L42.8344 5.12432Z" fill="#C9B589"/>
<path d="M42.7778 5.08184L35.6145 15.75L35.6726 15.789L42.8359 5.12086L42.7778 5.08184Z" fill="#C8B488"/>
<path d="M42.7114 5.03936L35.5481 15.7075L35.6062 15.7465L42.7695 5.07838L42.7114 5.03936Z" fill="#C8B387"/>
<path d="M42.6547 4.99688L35.4914 15.665L35.5495 15.7041L42.7128 5.0359L42.6547 4.99688Z" fill="#C7B286"/>
<path d="M42.5981 4.9544L35.4348 15.6226L35.4929 15.6616L42.6562 4.99342L42.5981 4.9544Z" fill="#C6B185"/>
<path d="M42.5317 4.92193L35.3684 15.5901L35.4265 15.6291L42.5898 4.96095L42.5317 4.92193Z" fill="#C5B084"/>
<path d="M42.4751 4.87945L35.3118 15.5476L35.3699 15.5866L42.5332 4.91847L42.4751 4.87945Z" fill="#C4AF83"/>
<path d="M42.4184 4.83697L35.2551 15.5051L35.3132 15.5441L42.4765 4.87599L42.4184 4.83697Z" fill="#C4AE82"/>
<path d="M42.352 4.79449L35.1887 15.4626L35.2468 15.5017L42.4101 4.83351L42.352 4.79449Z" fill="#C3AE81"/>
<path d="M42.2954 4.75201L35.1321 15.4202L35.1902 15.4592L42.3535 4.79103L42.2954 4.75201Z" fill="#C2AD80"/>
<path d="M42.229 4.70391L35.0657 15.3721L35.1238 15.4111L42.2871 4.74293L42.229 4.70391Z" fill="#C1AC7F"/>
<path d="M42.1723 4.66143L35.009 15.3296L35.0671 15.3686L42.2304 4.70045L42.1723 4.66143Z" fill="#C0AB7E"/>
<path d="M42.1001 4.63726L34.9368 15.3054L34.9949 15.3444L42.1582 4.67628L42.1001 4.63726Z" fill="#C0AA7D"/>
<path d="M42.0434 4.59478L34.8801 15.2629L34.9382 15.302L42.1015 4.6338L42.0434 4.59478Z" fill="#BFA97C"/>
<path d="M41.9868 4.5523L34.8235 15.2205L34.8816 15.2595L42.0449 4.59132L41.9868 4.5523Z" fill="#BEA87B"/>
<path d="M41.9204 4.50982L34.7571 15.178L34.8152 15.217L41.9785 4.54884L41.9204 4.50982Z" fill="#BDA77A"/>
<path d="M41.8637 4.46734L34.7004 15.1355L34.7586 15.1745L41.9219 4.50636L41.8637 4.46734Z" fill="#BCA779"/>
<path d="M41.8071 4.42486L34.6438 15.093L34.7019 15.132L41.8652 4.46388L41.8071 4.42486Z" fill="#BCA678"/>
<path d="M41.7407 4.39239L34.5774 15.0605L34.6355 15.0996L41.7988 4.43141L41.7407 4.39239Z" fill="#BBA577"/>
<path d="M41.6841 4.34991L34.5208 15.0181L34.5789 15.0571L41.7422 4.38893L41.6841 4.34991Z" fill="#BAA476"/>
<path d="M41.6274 4.30742L34.4641 14.9756L34.5222 15.0146L41.6855 4.34645L41.6274 4.30742Z" fill="#B9A375"/>
<path d="M41.5708 4.26495L34.4075 14.9331L34.4656 14.9721L41.6289 4.30397L41.5708 4.26495Z" fill="#B8A274"/>
<path d="M41.4966 4.21685L34.3333 14.885L34.3914 14.924L41.5547 4.25587L41.4966 4.21685Z" fill="#B8A173"/>
<path d="M41.4399 4.17437L34.2766 14.8425L34.3347 14.8816L41.498 4.21339L41.4399 4.17437Z" fill="#B7A172"/>
<path d="M41.3833 4.13189L34.22 14.8L34.2781 14.8391L41.4414 4.17091L41.3833 4.13189Z" fill="#B6A071"/>
<path d="M41.311 4.10772L34.1477 14.7759L34.2058 14.8149L41.3691 4.14674L41.311 4.10772Z" fill="#B59F70"/>
<path d="M41.2544 4.06524L34.0911 14.7334L34.1492 14.7724L41.3125 4.10426L41.2544 4.06524Z" fill="#B49E6F"/>
<path d="M41.1977 4.02276L34.0344 14.6909L34.0925 14.7299L41.2558 4.06178L41.1977 4.02276Z" fill="#B49D6D"/>
<path d="M34.03 14.6899L33.97 14.6499L41.12 4.00989H41.17L41.2 4.01989L34.03 14.6899Z" fill="#B39C6C"/>
<path d="M33.9694 14.6499L33.9094 14.6099L41.0294 4.00989H41.1194L33.9694 14.6499Z" fill="#B29B6B"/>
<path d="M33.9108 14.6099L33.8508 14.5699L40.9408 4.00989H41.0308L33.9108 14.6099Z" fill="#B19A6A"/>
<path d="M33.8504 14.5699L33.7904 14.5299L40.8604 4.00989H40.9404L33.8504 14.5699Z" fill="#B09A69"/>
<path d="M33.7897 14.5299L33.7297 14.4799L40.7697 4.00989H40.8597L33.7897 14.5299Z" fill="#B09968"/>
<path d="M33.7311 14.4799L33.6711 14.4399L40.6811 4.00989H40.7711L33.7311 14.4799Z" fill="#AF9867"/>
<path d="M33.6704 14.4399L33.6104 14.3999L40.5904 4.00989H40.6804L33.6704 14.4399Z" fill="#AE9766"/>
<path d="M33.61 14.3999L33.55 14.3599L40.5 4.00989H40.59L33.61 14.3999Z" fill="#AD9665"/>
<path d="M33.5495 14.3599L33.4895 14.3199L40.4095 4.00989H40.4995L33.5495 14.3599Z" fill="#AC9564"/>
<path d="M33.4909 14.3199L33.4309 14.2799L40.3309 4.00989H40.4109L33.4909 14.3199Z" fill="#AC9463"/>
<path d="M33.4304 14.2799L33.3704 14.2399L40.2404 4.00989H40.3304L33.4304 14.2799Z" fill="#AB9462"/>
<path d="M33.3698 14.2399L33.3098 14.1999L40.1498 4.00989H40.2398L33.3698 14.2399Z" fill="#AA9361"/>
<path d="M33.3095 14.1999L33.2395 14.1599L40.0595 4.00989H40.1495L33.3095 14.1999Z" fill="#A99260"/>
<path d="M33.2409 14.1599L33.1809 14.1199L39.9709 4.00989H40.0609L33.2409 14.1599Z" fill="#A8915F"/>
<path d="M33.1804 14.1199L33.1204 14.0799L39.8804 4.00989H39.9704L33.1804 14.1199Z" fill="#A8905E"/>
<path d="M33.1198 14.0799L33.0598 14.0399L39.7998 4.00989H39.8798L33.1198 14.0799Z" fill="#A78F5D"/>
<path d="M33.0612 14.0399L33.0012 13.9899L39.7112 4.00989H39.8012L33.0612 14.0399Z" fill="#A68E5C"/>
<path d="M33.0007 13.9899L32.9407 13.9499L39.6207 4.00989H39.7107L33.0007 13.9899Z" fill="#A58D5B"/>
<path d="M32.9404 13.9499L32.8804 13.9099L39.5304 4.00989H39.6204L32.9404 13.9499Z" fill="#A48D5A"/>
<path d="M32.8796 13.9099L32.8196 13.8699L39.4396 4.00989H39.5296L32.8796 13.9099Z" fill="#A48C59"/>
<path d="M32.821 13.8699L32.761 13.8299L39.361 4.00989H39.441L32.821 13.8699Z" fill="#A38B58"/>
<path d="M32.7604 13.8299L32.7004 13.7899L39.2704 4.00989H39.3604L32.7604 13.8299Z" fill="#A28A57"/>
<path d="M32.6999 13.7899L32.6399 13.7499L39.1799 4.00989H39.2699L32.6999 13.7899Z" fill="#A18956"/>
<path d="M32.6413 13.7499L32.5813 13.7099L39.0913 4.00989H39.1813L32.6413 13.7499Z" fill="#A08855"/>
<path d="M32.581 13.7099L32.511 13.6699L39.001 4.00989H39.091L32.581 13.7099Z" fill="#A08754"/>
<path d="M32.5104 13.6699L32.4504 13.6299L38.9104 4.00989H39.0004L32.5104 13.6699Z" fill="#9F8653"/>
<path d="M32.4499 13.6299L32.3899 13.5899L38.8299 4.00989H38.9099L32.4499 13.6299Z" fill="#9E8652"/>
<path d="M32.3913 13.5899L32.3313 13.5499L38.7413 4.00989H38.8313L32.3913 13.5899Z" fill="#9D8551"/>
<path d="M32.3308 13.5499L32.2708 13.5099L38.6508 4.00989H38.7408L32.3308 13.5499Z" fill="#9C8450"/>
<path d="M32.2704 13.5099L32.2104 13.4599L38.5604 4.00989H38.6504L32.2704 13.5099Z" fill="#9C834F"/>
<path d="M32.2097 13.4599L32.1497 13.4199L38.4697 4.00989H38.5597L32.2097 13.4599Z" fill="#9B824E"/>
<path d="M32.1511 13.4199L32.0911 13.3799L38.3911 4.00989H38.4711L32.1511 13.4199Z" fill="#9A814D"/>
<path d="M32.0904 13.3799L32.0304 13.3399L38.3004 4.00989H38.3904L32.0904 13.3799Z" fill="#99804C"/>
<path d="M32.03 13.3399L31.97 13.2999L38.21 4.00989H38.3L32.03 13.3399Z" fill="#98804B"/>
<path d="M31.9694 13.2999L31.9094 13.2599L38.1194 4.00989H38.2094L31.9694 13.2999Z" fill="#977F4A"/>
<path d="M31.9108 13.2599L31.8508 13.2199L38.0308 4.00989H38.1208L31.9108 13.2599Z" fill="#977E49"/>
<path d="M31.8504 13.2199L31.7904 13.1799L37.9404 4.00989H38.0304L31.8504 13.2199Z" fill="#967D48"/>
<path d="M31.79 13.1799L31.72 13.1399L37.86 4.00989H37.94L31.79 13.1799Z" fill="#957C47"/>
<path d="M31.7194 13.1399L31.6594 13.0999L37.7694 4.00989H37.8594L31.7194 13.1399Z" fill="#947B46"/>
<path d="M31.6608 13.0999L31.6008 13.0599L37.6808 4.00989H37.7708L31.6608 13.0999Z" fill="#937A45"/>
<path d="M31.6004 13.0599L31.5404 13.0199L37.5904 4.00989H37.6804L31.6004 13.0599Z" fill="#937944"/>
<path d="M31.5397 13.0199L31.4797 12.9699L37.4997 4.00989H37.5897L31.5397 13.0199Z" fill="#927943"/>
<path d="M31.4811 12.9699L31.4211 12.9299L37.4111 4.00989H37.5011L31.4811 12.9699Z" fill="#917842"/>
<path d="M31.4204 12.9299L31.3604 12.8899L37.3304 4.00989H37.4104L31.4204 12.9299Z" fill="#907741"/>
<path d="M31.36 12.8899L31.3 12.8499L37.24 4.00989H37.33L31.36 12.8899Z" fill="#8F7640"/>
<path d="M31.2995 12.8499L31.2395 12.8099L37.1495 4.00989H37.2395L31.2995 12.8499Z" fill="#8F753F"/>
<path d="M31.2409 12.8099L31.1809 12.7699L37.0609 4.00989H37.1509L31.2409 12.8099Z" fill="#8E743E"/>
<path d="M31.1804 12.7699L31.1204 12.7299L36.9704 4.00989H37.0604L31.1804 12.7699Z" fill="#8D733D"/>
<path d="M31.1198 12.7299L31.0598 12.6899L36.8898 4.00989H36.9698L31.1198 12.7299Z" fill="#8C733C"/>
<path d="M31.0595 12.6899L30.9895 12.6499L36.7995 4.00989H36.8895L31.0595 12.6899Z" fill="#8B723B"/>
<path d="M30.9909 12.6499L30.9309 12.6099L36.7109 4.00989H36.8009L30.9909 12.6499Z" fill="#8B713A"/>
<path d="M30.9304 12.6099L30.8704 12.5699L36.6204 4.00989H36.7104L30.9304 12.6099Z" fill="#8A7039"/>
<path d="M30.8704 12.5699V12.5599V12.4399L36.5304 4.00989H36.6204L30.8704 12.5699Z" fill="#896F38"/>
<path d="M30.8704 12.3099L36.4404 4.00989H36.5304L30.8704 12.4399V12.3099Z" fill="#886E37"/>
<path d="M30.8704 12.1799L36.3604 4.00989H36.4404L30.8704 12.3099V12.1799Z" fill="#876D36"/>
<path d="M30.8704 12.0399L36.2704 4.00989H36.3604L30.8704 12.1799V12.0399Z" fill="#876C35"/>
<path d="M30.8704 11.9099L36.1804 4.00989H36.2704L30.8704 12.0399V11.9099Z" fill="#866C34"/>
<path d="M30.8704 11.7799L36.0904 4.00989H36.1804L30.8704 11.9099V11.7799Z" fill="#856B33"/>
<path d="M30.8704 11.6499L36.0004 4.00989H36.0904L30.8704 11.7799V11.6499Z" fill="#846A32"/>
<path d="M30.8704 11.5199L35.9204 4.00989H36.0004L30.8704 11.6499V11.5199Z" fill="#836931"/>
<path d="M30.8704 11.3899L35.8304 4.00989H35.9204L30.8704 11.5199V11.3899Z" fill="#836830"/>
<path d="M30.8704 11.2599L35.7404 4.00989H35.8304L30.8704 11.3899V11.2599Z" fill="#82672F"/>
<path d="M30.8704 11.1199L35.6504 4.00989H35.7404L30.8704 11.2599V11.1199Z" fill="#81662E"/>
<path d="M30.8704 10.9899L35.5604 4.00989H35.6504L30.8704 11.1199V10.9899Z" fill="#80652D"/>
<path d="M30.8704 10.8599L35.4704 4.00989H35.5604L30.8704 10.9899V10.8599Z" fill="#7F652C"/>
<path d="M30.8704 10.7299L35.3904 4.00989H35.4704L30.8704 10.8599V10.7299Z" fill="#7F642B"/>
<path d="M30.8704 10.5999L35.3004 4.00989H35.3904L30.8704 10.7299V10.5999Z" fill="#7E632A"/>
<path d="M30.8704 10.4699L35.2104 4.00989H35.3004L30.8704 10.5999V10.4699Z" fill="#7D6229"/>
<path d="M35.2104 4.00989L30.8704 10.4699V4.00989H35.2104Z" fill="#7D6229"/>
</g>
<path d="M45.7504 0.419678L43.9504 7.22968L45.7504 0.419678Z" fill="#030325"/>
<mask id="mask1_1_736" style="mask-type:luminance" maskUnits="userSpaceOnUse" x="30" y="4" width="15" height="15">
<path d="M30.8704 11.7399L31.0404 11.4899L40.7504 4.00989C41.1004 4.67989 41.6304 5.22989 42.2804 5.59989C42.8704 6.05989 43.5904 6.33989 44.3304 6.40989L41.0804 18.2299L40.9104 18.4799C40.5204 18.5499 40.1104 18.4699 39.7904 18.2399C38.7504 17.5499 39.4304 16.5399 38.3804 15.8499C37.3304 15.1599 36.6804 16.1499 35.6404 15.4599C34.6004 14.7699 35.2904 13.7599 34.2504 13.0699C33.2104 12.3799 32.5404 13.3799 31.5104 12.6799C31.1804 12.4599 30.9504 12.1199 30.8804 11.7299L30.8704 11.7399Z" fill="white"/>
</mask>
<g mask="url(#mask1_1_736)">
<path d="M44.5002 6.20996C44.6602 6.25996 44.8202 6.30996 44.9802 6.35996C44.9302 8.68996 42.2102 14.84 42.1602 17.17C42.1502 17.79 42.1702 18.42 42.1102 19.03C42.0702 19.37 41.8902 19.69 41.7702 20.02C41.7302 20.06 41.6902 20.1 41.6502 20.14H41.6602C41.3402 20.23 41.0302 20.32 40.7102 20.41C40.8002 19.54 40.8902 18.67 40.9902 17.8C41.2702 15.21 44.2102 8.79996 44.4902 6.20996H44.5002Z" fill="#CBA275"/>
<path d="M30.3198 12.4199C30.3198 11.9399 30.3198 11.4599 30.3098 10.9799C30.4798 10.7799 30.6198 10.4999 30.8198 10.3899C33.1298 9.19989 38.1098 4.19989 40.4298 3.03989C40.4898 3.00989 40.5598 3.01989 40.6298 3.00989C40.7298 3.17989 40.8398 3.33989 40.9398 3.50989C40.7998 3.56989 40.6398 3.59989 40.5098 3.67989C37.9998 5.31989 32.8298 10.7899 30.3198 12.4299V12.4199Z" fill="#F3D9B6"/>
<path d="M34.1598 13.9599C34.0898 14.0099 34.0198 14.0499 33.9498 14.0999C32.2698 14.8499 30.9398 14.2399 30.3098 12.4199C32.8198 10.7799 37.9898 5.30988 40.4998 3.66988C40.6298 3.58988 40.7798 3.54988 40.9298 3.49988C40.9598 3.49988 40.9798 3.51988 41.0098 3.51988C41.2598 3.80988 41.5098 4.10988 41.7598 4.39988C40.2798 6.04988 36.1398 11.5199 34.6698 13.1799C34.4698 13.4099 34.3198 13.6899 34.1498 13.9499L34.1598 13.9599Z" fill="#F8D4A2"/>
<path d="M37.9893 17.0799C37.9993 16.9999 38.0093 16.9199 38.0193 16.8399C38.1393 16.5999 38.2693 16.3799 38.3593 16.1299C39.1593 13.9199 42.6193 7.88993 43.4093 5.67993C43.7693 5.85993 44.1293 6.03993 44.4893 6.21993C44.2093 8.80993 41.2693 15.2199 40.9893 17.8099C40.8993 18.6799 40.7993 19.5499 40.7093 20.4199C39.1193 20.4199 38.0893 19.4399 37.9193 17.6899C37.8993 17.4899 37.9593 17.2899 37.9893 17.0799Z" fill="#DDAF7E"/>
<path d="M43.4202 5.66991C42.6202 7.87991 39.1702 13.9199 38.3702 16.1199C38.2802 16.3699 38.1402 16.5899 38.0302 16.8299C36.4702 18.2999 34.4002 16.8499 34.1502 15.1799C34.0902 14.7899 34.1502 14.3699 34.1702 13.9599C34.3402 13.6999 34.4902 13.4099 34.6902 13.1899C36.1602 11.5299 40.3002 6.05991 41.7802 4.40991C42.3302 4.82991 42.8702 5.25991 43.4202 5.67991V5.66991Z" fill="#F0C897"/>
</g>
<path d="M13.3198 8.46004C13.0398 8.41004 12.7598 8.40004 12.4798 8.46004C11.9098 8.58004 11.4598 8.97004 11.1298 9.48004C10.7998 9.99004 10.5598 10.62 10.3698 11.35C10.1498 12.21 10.0098 13.22 9.94979 14.29C9.09979 14.22 8.30979 14.21 7.58979 14.26C6.62979 14.33 5.79979 14.51 5.12979 14.82C4.45979 15.13 3.92979 15.61 3.71979 16.26C3.49979 16.94 3.71979 17.65 4.08979 18.29C4.46979 18.94 5.02979 19.55 5.68979 20.04C5.83979 20.15 6.02979 20.18 6.19979 20.1C6.36979 20.03 6.48979 19.87 6.50979 19.69C6.52979 19.51 6.44979 19.33 6.29979 19.22C5.74979 18.81 5.25979 18.28 4.96979 17.78C4.67979 17.28 4.59979 16.83 4.68979 16.58C4.79979 16.25 5.05979 15.97 5.56979 15.74C6.06979 15.5 6.79979 15.33 7.66979 15.27C8.33979 15.22 9.09979 15.23 9.91979 15.3C9.89979 16.25 9.92979 17.24 10.0098 18.23C7.63979 20.64 6.10979 22.94 5.62979 24.82C5.32979 25.98 5.48979 27.04 6.11979 27.76C6.54979 28.25 7.14979 28.55 7.84979 28.6C8.54979 28.65 9.33979 28.48 10.3098 28.12C10.4898 28.06 10.6098 27.91 10.6498 27.73C10.6798 27.55 10.6098 27.36 10.4698 27.25C10.3298 27.13 10.1298 27.1 9.95979 27.17C9.05979 27.5 8.38979 27.62 7.91979 27.59C7.44979 27.56 7.15979 27.41 6.87979 27.09C6.51979 26.69 6.36979 26.02 6.60979 25.09C6.96979 23.66 8.19979 21.7 10.1398 19.58C10.1998 20.02 10.2598 20.46 10.3398 20.89C10.8998 24 11.9298 26.71 13.1298 28.62C13.7298 29.58 14.3798 30.33 15.0598 30.84C15.7398 31.35 16.4898 31.62 17.2298 31.47H17.2598L17.2898 31.45C17.9398 31.23 18.4498 30.71 18.8398 30.02C19.2298 29.33 19.5098 28.47 19.6898 27.46C20.0598 25.44 20.6298 31.43 20.1498 28.57C20.0998 28.29 19.8398 28.11 19.5598 28.15C19.2798 28.2 19.0998 28.46 19.1398 28.74C19.5998 31.49 19.0198 25.41 18.6798 27.27C18.5098 28.2 18.2498 28.97 17.9398 29.52C17.6398 30.05 17.3098 30.35 16.9798 30.47C16.6098 30.53 16.1798 30.42 15.6498 30.02C15.1198 29.62 14.5298 28.95 13.9698 28.07C12.8598 26.31 11.8498 23.7 11.3098 20.7C11.1898 20.03 11.0998 19.32 11.0298 18.61C11.4698 18.17 11.9398 17.72 12.4398 17.27C12.9398 16.83 13.4398 16.41 13.9398 16.02C14.0598 16.05 14.1898 16.08 14.3098 16.11C14.8398 16.25 15.3798 16.42 15.9198 16.6C18.8198 17.56 21.3098 18.85 22.9498 20.13C23.7698 20.77 24.3798 21.41 24.7198 21.97C25.0598 22.53 25.1298 22.97 25.0098 23.33C24.8998 23.66 24.6598 23.94 24.2198 24.18C23.7798 24.42 23.1398 24.61 22.3298 24.69C22.1398 24.7 21.9798 24.81 21.8998 24.98C21.8198 25.15 21.8398 25.35 21.9498 25.5C22.0598 25.65 22.2498 25.73 22.4298 25.7C23.3298 25.61 24.0998 25.4 24.7098 25.07C25.3198 24.73 25.7698 24.25 25.9798 23.64C26.2198 22.92 26.0198 22.15 25.5898 21.43C25.1598 20.71 24.4698 20.01 23.5798 19.32C21.8098 17.94 19.2398 16.62 16.2398 15.63C15.8198 15.49 15.3998 15.37 14.9798 15.25C16.0598 14.49 17.1198 13.86 18.0998 13.4C19.8498 12.57 21.3598 12.27 22.1898 12.47C22.4998 12.54 22.7098 12.67 22.8698 12.84C23.3798 13.42 23.6098 14.64 22.3398 15.95C22.1998 16.08 22.1498 16.27 22.1998 16.45C22.2498 16.63 22.3898 16.77 22.5698 16.81C22.7498 16.85 22.9398 16.79 23.0698 16.65C24.6198 15.05 24.5398 13.17 23.6398 12.15C23.3298 11.8 22.8998 11.57 22.4298 11.46C21.1598 11.16 19.5198 11.58 17.6698 12.47C16.4198 13.07 15.0698 13.89 13.7198 14.91C12.7598 14.68 11.8198 14.5 10.9398 14.39C10.9998 13.35 11.1298 12.38 11.3298 11.59C11.4998 10.93 11.7198 10.39 11.9498 10.02C12.1898 9.66004 12.4198 9.49004 12.6598 9.44004C12.7998 9.41004 12.9398 9.41004 13.0898 9.44004C13.5998 9.54004 14.4398 10.35 15.2398 11.49C15.3398 11.64 15.5198 11.73 15.6998 11.71C15.8798 11.7 16.0398 11.58 16.1198 11.42C16.1998 11.25 16.1798 11.06 16.0698 10.91C15.2298 9.71004 14.3998 8.67004 13.2798 8.45004L13.3198 8.46004ZM12.7098 15.74C12.3998 15.99 12.0998 16.25 11.7898 16.53C11.4998 16.79 11.2298 17.05 10.9598 17.3C10.9298 16.67 10.9198 16.05 10.9298 15.43C11.4998 15.51 12.0998 15.61 12.7098 15.74ZM15.2798 17.93C14.4698 17.71 13.6298 18.19 13.3998 19C13.1698 19.81 13.6598 20.65 14.4698 20.88C15.2798 21.11 16.1198 20.62 16.3498 19.81C16.5798 19 16.0898 18.16 15.2798 17.93Z" fill="black"/>
<path d="M1.26904 46.6L46.079 41.94C46.439 41.9 46.709 41.6 46.699 41.24L46.419 30.28C46.409 29.88 46.059 29.57 45.659 29.61L6.00904 34.01C5.76904 34.04 2.56904 40.85 2.46904 41.08L0.569038 45.64C0.359038 46.12 0.749038 46.65 1.26904 46.6Z" fill="black"/>
<path d="M16.6893 27.96L39.1393 26.98L37.9693 33.87L7.82935 34.91L16.6893 27.96Z" fill="black"/>
<path d="M10.5494 22.5503L18.6494 21.6803L21.9294 39.1303L13.7394 40.0003L13.6294 37.9803L11.8794 38.1703L11.1494 40.2803L2.40942 41.2103L10.5494 22.5503Z" fill="#0E1020"/>
<path d="M27.0188 38.9302C13.2588 37.9602 19.2088 16.1502 34.1688 20.9202L33.4488 29.5102L33.3588 29.4502L32.4188 37.4502C30.4088 38.3802 28.8388 38.9402 27.0188 38.9302ZM29.8688 27.6202C27.8288 27.3202 25.7988 31.2202 28.5988 31.4502C30.0988 31.5602 31.4288 29.8302 32.4388 28.7802C31.6988 28.2202 30.7388 27.5602 29.8788 27.6202H29.8688Z" fill="#0E1020"/>
<path d="M37.5394 37.7903C35.6194 37.8603 33.0794 36.9803 30.9194 35.9503L33.8094 29.8703C30.5794 25.6003 34.6594 19.5603 40.0194 19.1503C42.5094 18.8103 44.9394 19.5403 47.4594 20.6903L44.7494 26.4003C49.4194 30.9603 43.6294 38.1403 37.5494 37.7903H37.5394Z" fill="#0E1020"/>
<path d="M43.9398 25.3202C43.8698 25.4602 43.6898 25.5102 43.5598 25.4202C42.6598 24.7802 41.5498 24.4802 40.4698 24.5902C39.8798 24.6502 39.4198 25.0502 39.4198 25.5002C39.4198 25.9502 39.7398 26.1302 41.0698 26.3102C42.1198 26.4502 42.9898 26.7202 43.5598 27.0302C44.5898 27.6302 45.2298 28.8902 45.2298 30.2802C45.2298 33.3502 42.2298 36.1602 38.5698 36.5502C36.7398 36.7502 35.0298 36.4402 32.7698 35.4702C32.6398 35.4102 32.5798 35.2602 32.6398 35.1302L34.4298 31.3602C34.4998 31.2102 34.7098 31.1602 34.8298 31.2802C35.7498 32.1402 37.0898 32.5702 38.3998 32.4302C39.1498 32.3502 39.6598 31.9502 39.6598 31.4302C39.6598 30.9102 39.2298 30.6102 38.2398 30.4802C37.1598 30.3702 36.6198 30.2402 36.0398 30.0302C34.6198 29.4702 33.8698 28.2502 33.8698 26.5102C33.8698 23.4402 36.6598 20.7202 40.1398 20.3502C41.9898 20.1502 43.5398 20.3902 45.5898 21.2202C45.7298 21.2702 45.7898 21.4302 45.7198 21.5702L43.9398 25.3302V25.3202Z" fill="#FAA82A"/>
<path d="M10.1087 39.1903L4.75872 39.7603C4.55872 39.7803 4.41872 39.5803 4.49872 39.4003L11.3087 23.7903C11.3487 23.7103 11.4287 23.6503 11.5187 23.6403L17.4487 23.0103C17.5787 23.0003 17.6987 23.0903 17.7287 23.2203L20.4687 37.8103C20.4987 37.9603 20.3887 38.1003 20.2487 38.1103L15.1387 38.6503C14.9887 38.6703 14.8687 38.5603 14.8587 38.4103L14.7787 36.9203C14.7787 36.7703 14.6387 36.6603 14.4987 36.6803L11.1787 37.0303C11.0787 37.0403 10.9987 37.1103 10.9687 37.2003L10.3387 39.0103C10.3087 39.1003 10.2187 39.1703 10.1287 39.1803L10.1087 39.1903ZM14.1387 33.2203C14.2787 33.2103 14.3787 33.0803 14.3687 32.9403L14.1587 30.4703C14.1387 30.1803 14.1087 29.7703 14.1087 29.4003C14.1087 28.8303 14.1087 28.6703 14.1787 28.1603C14.0687 28.1703 13.9787 28.2503 13.9587 28.3603C13.7887 29.1103 13.6287 29.6803 13.3087 30.5703L12.4187 33.0403C12.3587 33.2203 12.4987 33.4003 12.6887 33.3803L14.1387 33.2303V33.2203Z" fill="#FAA82A"/>
<path d="M32.4686 26.8902C32.4486 27.0802 32.2486 27.1902 32.0786 27.0902C31.1986 26.5502 30.3386 26.3602 29.3886 26.4602C27.5786 26.6502 26.0286 28.3702 26.0286 30.1602C26.0286 31.7602 27.2886 32.8202 28.9586 32.6402C29.8986 32.5402 30.6986 32.1802 31.4786 31.5002C31.6586 31.3502 31.9286 31.5002 31.8986 31.7202L31.3386 36.4902C31.3286 36.5802 31.2686 36.6602 31.1886 36.6902C29.7786 37.3102 28.9086 37.5702 27.8486 37.6902C26.0886 37.8802 24.4186 37.4602 23.0886 36.5002C21.3986 35.2602 20.5286 33.3402 20.5286 30.8902C20.5286 26.0402 24.1186 22.0402 28.9486 21.5302C30.1786 21.4002 31.4386 21.4702 32.6886 21.7602C32.8086 21.7902 32.8986 21.9002 32.8786 22.0302L32.4786 26.8702L32.4686 26.8902Z" fill="#FAA82A"/>
<g opacity="0.9">
<path d="M32.8588 21.94L32.3888 22.07C32.0788 22.07 31.7788 22.06 31.4888 22.07C30.6688 21.99 29.5488 21.94 28.6688 22.1C27.2588 22.36 24.5488 23.44 23.5388 24.71C19.6888 28.45 21.5088 34.83 21.5088 34.83L21.1588 34.15C20.7388 33.21 20.5188 32.13 20.5188 30.91C20.5188 26.06 24.1088 22.06 28.9388 21.55C30.1688 21.42 31.4288 21.49 32.6788 21.78C32.7688 21.8 32.8388 21.87 32.8588 21.95V21.94Z" fill="white"/>
</g>
<path d="M14.8597 20.53C15.4838 20.53 15.9897 20.0241 15.9897 19.4C15.9897 18.7759 15.4838 18.27 14.8597 18.27C14.2357 18.27 13.7297 18.7759 13.7297 19.4C13.7297 20.0241 14.2357 20.53 14.8597 20.53Z" fill="#FAA82A"/>
<path d="M7.82904 12.68C8.14936 12.68 8.40904 12.4203 8.40904 12.1C8.40904 11.7797 8.14936 11.52 7.82904 11.52C7.50871 11.52 7.24904 11.7797 7.24904 12.1C7.24904 12.4203 7.50871 12.68 7.82904 12.68Z" fill="#EE475F"/>
<path d="M18.1593 10.9701C18.4797 10.9701 18.7393 10.7104 18.7393 10.3901C18.7393 10.0697 18.4797 9.81006 18.1593 9.81006C17.839 9.81006 17.5793 10.0697 17.5793 10.3901C17.5793 10.7104 17.839 10.9701 18.1593 10.9701Z" fill="#EE475F"/>
<path d="M4.04966 41.37L6.58966 41.12L6.42966 41.77L4.62966 41.95L4.41966 42.8L5.99966 42.64L5.83966 43.28L4.25966 43.44L3.88966 44.98L3.14966 45.05L4.03966 41.37H4.04966Z" fill="white"/>
<path d="M7.06999 41.06L7.82999 40.98L7.27999 43.24C7.21999 43.49 7.19999 43.67 7.22999 43.79C7.26999 43.99 7.43999 44.07 7.73999 44.04C8.03999 44.01 8.25999 43.89 8.39999 43.67C8.48999 43.55 8.55999 43.36 8.61999 43.11L9.16999 40.85L9.92999 40.77L9.37999 43.03C9.28999 43.42 9.14999 43.73 8.97999 43.96C8.65999 44.38 8.19999 44.62 7.57999 44.68C6.95999 44.74 6.59999 44.58 6.46999 44.21C6.40999 44 6.41999 43.7 6.51999 43.31L7.06999 41.05V41.06Z" fill="white"/>
<path d="M13.2287 40.45L13.0687 41.0999L12.0087 41.2099L11.2787 44.24L10.5287 44.31L11.2587 41.2799L10.1887 41.3899L10.3487 40.74L13.2287 40.45Z" fill="white"/>
<path d="M13.6597 40.41L14.4197 40.33L13.8697 42.59C13.8097 42.84 13.7897 43.02 13.8197 43.14C13.8597 43.34 14.0297 43.42 14.3297 43.39C14.6297 43.36 14.8497 43.24 14.9897 43.02C15.0797 42.9 15.1497 42.71 15.2097 42.46L15.7597 40.2L16.5197 40.12L15.9697 42.38C15.8797 42.77 15.7397 43.08 15.5697 43.31C15.2497 43.73 14.7897 43.97 14.1697 44.03C13.5497 44.09 13.1897 43.93 13.0597 43.56C12.9997 43.35 13.0097 43.05 13.1097 42.66L13.6597 40.4V40.41Z" fill="white"/>
<path d="M19.4904 39.9199C19.6104 39.9699 19.7004 40.0399 19.7604 40.1399C19.8104 40.2299 19.8504 40.3199 19.8604 40.4299C19.8804 40.5399 19.8604 40.6699 19.8304 40.8099C19.7904 40.9799 19.7004 41.1599 19.5804 41.3399C19.4504 41.5199 19.2804 41.6499 19.0704 41.7399C19.2204 41.7899 19.3104 41.8799 19.3504 41.9999C19.3904 42.1199 19.3804 42.3099 19.3104 42.5699L19.2504 42.8199C19.2104 42.9899 19.1904 43.0999 19.1904 43.1599C19.1904 43.2499 19.2204 43.3199 19.2804 43.3599L19.2604 43.4499L18.4404 43.5299C18.4404 43.4499 18.4404 43.3899 18.4404 43.3399C18.4404 43.2399 18.4604 43.1299 18.4904 43.0299L18.5704 42.6899C18.6204 42.4599 18.6204 42.2999 18.5704 42.2299C18.5104 42.1599 18.3804 42.1299 18.1804 42.1499L17.4504 42.2199L17.1004 43.6599L16.3704 43.7299L17.2604 40.0499L18.9604 39.8799C19.2004 39.8599 19.3804 39.8799 19.5004 39.9199H19.4904ZM17.8204 40.6199L17.5804 41.6099L18.3804 41.5299C18.5404 41.5099 18.6604 41.4799 18.7504 41.4299C18.9104 41.3499 19.0104 41.1999 19.0604 40.9899C19.1104 40.7699 19.0804 40.6199 18.9704 40.5599C18.9004 40.5199 18.7904 40.5099 18.6404 40.5299L17.8204 40.6099V40.6199Z" fill="white"/>
<path d="M23.2692 40.0899L21.3892 40.2799L21.1992 41.0599L22.9292 40.8899L22.7692 41.5299L21.0392 41.6999L20.8092 42.6499L22.7792 42.4499L22.6192 43.1099L19.9192 43.3799L20.8092 39.6999L23.4192 39.4399L23.2592 40.0899H23.2692Z" fill="white"/>
<path d="M25.389 41.7199C25.369 41.8899 25.389 42.0099 25.429 42.0799C25.519 42.2199 25.709 42.2699 26.009 42.2399C26.189 42.2199 26.339 42.1899 26.459 42.1399C26.689 42.0399 26.829 41.8899 26.879 41.6799C26.909 41.5599 26.879 41.4699 26.789 41.4099C26.699 41.3599 26.549 41.3099 26.339 41.2899L25.979 41.2399C25.619 41.1899 25.389 41.1199 25.269 41.0399C25.069 40.8899 25.019 40.6399 25.099 40.2799C25.179 39.9499 25.359 39.6599 25.649 39.4199C25.939 39.1799 26.309 39.0399 26.759 38.9899C27.139 38.9499 27.439 39.0199 27.659 39.1999C27.879 39.3799 27.949 39.6599 27.859 40.0499L27.149 40.1199C27.189 39.8999 27.129 39.7499 26.979 39.6799C26.879 39.6299 26.739 39.6099 26.559 39.6299C26.359 39.6499 26.199 39.7099 26.059 39.7999C25.919 39.8899 25.839 40.0099 25.799 40.1499C25.769 40.2799 25.799 40.3699 25.899 40.4299C25.959 40.4699 26.109 40.4999 26.339 40.5399L26.929 40.6299C27.189 40.6699 27.369 40.7399 27.479 40.8399C27.649 40.9899 27.699 41.2299 27.619 41.5599C27.539 41.8999 27.349 42.1899 27.039 42.4399C26.729 42.6899 26.349 42.8299 25.889 42.8799C25.419 42.9299 25.079 42.8499 24.859 42.6599C24.639 42.4699 24.579 42.1799 24.679 41.7999L25.389 41.7299V41.7199Z" fill="white"/>
<path d="M29.0097 39.25C29.3697 38.92 29.7697 38.73 30.2097 38.69C30.7997 38.63 31.1897 38.79 31.3597 39.17C31.4597 39.38 31.4797 39.6 31.4397 39.83L30.6997 39.9C30.6997 39.73 30.6697 39.6 30.6097 39.52C30.5197 39.37 30.3397 39.31 30.0797 39.34C29.8197 39.37 29.5797 39.5 29.3697 39.74C29.1597 39.98 29.0097 40.31 28.9097 40.72C28.8097 41.13 28.8197 41.43 28.9297 41.62C29.0397 41.81 29.2197 41.89 29.4697 41.87C29.7197 41.84 29.9397 41.74 30.1197 41.55C30.2197 41.45 30.3097 41.3 30.4097 41.1L31.1497 41.03C30.9897 41.44 30.7497 41.78 30.4197 42.06C30.0997 42.34 29.7297 42.5 29.3197 42.54C28.8097 42.59 28.4597 42.46 28.2497 42.15C28.0397 41.84 28.0097 41.38 28.1597 40.79C28.3197 40.15 28.5997 39.64 29.0097 39.26V39.25Z" fill="white"/>
<path d="M31.4387 42.23L32.3287 38.55L33.0687 38.48L32.7287 39.88L34.1087 39.74L34.4487 38.34L35.1887 38.27L34.2987 41.95L33.5587 42.02L33.9587 40.38L32.5787 40.52L32.1787 42.16L31.4387 42.23Z" fill="white"/>
<path d="M37.8297 41.2699C37.4897 41.5799 37.0697 41.7599 36.5597 41.8199C36.0497 41.8699 35.6997 41.7699 35.4997 41.5099C35.2197 41.1899 35.1697 40.7099 35.3297 40.0499C35.4897 39.3799 35.7997 38.8499 36.2397 38.4799C36.5797 38.1699 36.9997 37.9899 37.5097 37.9299C38.0197 37.8799 38.3697 37.9799 38.5697 38.2399C38.8497 38.5399 38.8997 39.0299 38.7397 39.6999C38.5797 40.3599 38.2797 40.8799 37.8297 41.2699ZM37.4997 40.7599C37.7297 40.5199 37.8897 40.1899 37.9897 39.7799C38.0897 39.3699 38.0797 39.0599 37.9597 38.8499C37.8397 38.6399 37.6397 38.5499 37.3397 38.5799C37.0497 38.6099 36.7797 38.7499 36.5497 38.9899C36.3197 39.2299 36.1497 39.5599 36.0497 39.9799C35.9497 40.3899 35.9597 40.7099 36.0797 40.9099C36.1997 41.1199 36.4097 41.2099 36.6997 41.1799C36.9897 41.1499 37.2597 41.0199 37.4797 40.7699L37.4997 40.7599Z" fill="white"/>
<path d="M41.6697 40.8899C41.3297 41.1999 40.9097 41.3799 40.3997 41.4399C39.8897 41.4899 39.5397 41.3899 39.3397 41.1299C39.0597 40.8099 39.0097 40.3299 39.1697 39.6699C39.3297 38.9999 39.6397 38.4699 40.0797 38.0999C40.4197 37.7899 40.8397 37.6099 41.3497 37.5499C41.8597 37.4999 42.2097 37.5999 42.4097 37.8599C42.6897 38.1599 42.7397 38.6499 42.5797 39.3199C42.4197 39.9799 42.1197 40.4999 41.6697 40.8899ZM41.3397 40.3799C41.5697 40.1399 41.7297 39.8099 41.8297 39.3999C41.9297 38.9899 41.9197 38.6799 41.7997 38.4699C41.6797 38.2599 41.4797 38.1699 41.1797 38.1999C40.8897 38.2299 40.6197 38.3699 40.3897 38.6099C40.1597 38.8499 39.9997 39.1799 39.8897 39.5999C39.7897 40.0099 39.7997 40.3299 39.9197 40.5299C40.0397 40.7399 40.2497 40.8299 40.5397 40.7999C40.8297 40.7699 41.0997 40.6399 41.3197 40.3899L41.3397 40.3799Z" fill="white"/>
<path d="M43.5904 37.43L44.3304 37.36L43.6004 40.38L45.3804 40.2L45.2204 40.86L42.7004 41.11L43.5904 37.43Z" fill="white"/>
<path d="M33.3684 20.93L37.0984 19.97L33.3684 23.64V20.93Z" fill="#0E1020"/>
<g opacity="0.9">
<path d="M17.7182 23.22C17.6982 23.09 17.5682 23 17.4382 23.01L11.5082 23.64C11.4182 23.64 11.3382 23.71 11.2982 23.79L4.48817 39.4C4.42817 39.55 4.50817 39.71 4.64817 39.75L11.8082 24.15L17.7482 23.4L17.7182 23.21V23.22Z" fill="white"/>
</g>
<g opacity="0.9">
<path d="M39.299 32.1C39.079 32.27 38.769 32.38 38.409 32.42C37.089 32.56 35.749 32.13 34.839 31.27C34.719 31.15 34.509 31.2 34.439 31.35L32.849 34.7L32.889 34.81L34.769 31.68C34.769 31.68 36.249 32.66 37.879 32.66C38.299 32.66 38.799 32.55 39.139 32.39C39.339 32.29 39.349 32.35 39.309 32.09L39.299 32.1Z" fill="white"/>
</g>
<g opacity="0.9">
<path d="M45.5493 21.21C43.4993 20.38 41.9493 20.14 40.0993 20.34C36.6193 20.71 33.8293 23.43 33.8293 26.5C33.8293 27.94 34.3493 29.02 35.3293 29.67C35.5293 29.49 35.3093 29.17 35.2293 29.1C33.7293 27.7 34.3493 25.24 34.6993 24.56C35.1193 23.75 36.2593 22.38 37.5393 21.68C39.1793 20.79 40.7093 20.73 42.2393 20.76C43.3993 20.78 44.9393 21.36 45.6293 21.65L45.6693 21.56C45.7293 21.43 45.6693 21.27 45.5393 21.21H45.5493Z" fill="white"/>
</g>
</g>
<defs>
<clipPath id="clip0_1_736">
<rect width="46.94" height="58.16" fill="white" transform="translate(0.509033)"/>
</clipPath>
</defs>
</svg>
