<svg width="17" height="16" viewBox="0 0 17 16" fill="none" xmlns="http://www.w3.org/2000/svg">
<path d="M13.6 2.25H2.60004C2.26852 2.25 1.95057 2.3817 1.71615 2.61612C1.48173 2.85054 1.35004 3.16848 1.35004 3.5V13.5C1.35005 13.6279 1.38275 13.7536 1.44503 13.8652C1.50731 13.9769 1.5971 14.0708 1.70588 14.138C1.81465 14.2052 1.9388 14.2435 2.06653 14.2492C2.19426 14.2549 2.32132 14.2278 2.43566 14.1706L4.10004 13.3387L5.76441 14.1706C5.86861 14.2228 5.98352 14.2499 6.10004 14.2499C6.21655 14.2499 6.33146 14.2228 6.43566 14.1706L8.10004 13.3387L9.76441 14.1706C9.86861 14.2228 9.98352 14.2499 10.1 14.2499C10.2166 14.2499 10.3315 14.2228 10.4357 14.1706L12.1 13.3387L13.7644 14.1706C13.8788 14.2278 14.0058 14.2549 14.1335 14.2492C14.2613 14.2435 14.3854 14.2052 14.4942 14.138C14.603 14.0708 14.6928 13.9769 14.755 13.8652C14.8173 13.7536 14.85 13.6279 14.85 13.5V3.5C14.85 3.16848 14.7183 2.85054 14.4839 2.61612C14.2495 2.3817 13.9316 2.25 13.6 2.25ZM13.35 12.2863L12.4357 11.8294C12.3315 11.7772 12.2166 11.7501 12.1 11.7501C11.9835 11.7501 11.8686 11.7772 11.7644 11.8294L10.1 12.6613L8.43566 11.8294C8.33146 11.7772 8.21655 11.7501 8.10004 11.7501C7.98352 11.7501 7.86861 11.7772 7.76441 11.8294L6.10004 12.6613L4.43566 11.8294C4.33146 11.7772 4.21655 11.7501 4.10004 11.7501C3.98352 11.7501 3.86861 11.7772 3.76441 11.8294L2.85004 12.2863V3.75H13.35V12.2863ZM4.01441 10.6706C4.19228 10.7596 4.3982 10.7743 4.58691 10.7115C4.77561 10.6487 4.93163 10.5135 5.02066 10.3356L5.18879 10H7.51129L7.67941 10.3356C7.72261 10.4252 7.78317 10.5052 7.85758 10.5711C7.93199 10.637 8.01876 10.6875 8.11285 10.7196C8.20693 10.7517 8.30646 10.7647 8.40563 10.758C8.50481 10.7513 8.60166 10.7249 8.69056 10.6804C8.77945 10.6359 8.85862 10.5742 8.92345 10.4988C8.98828 10.4235 9.03748 10.336 9.0682 10.2415C9.09891 10.1469 9.11053 10.0472 9.10237 9.94814C9.09421 9.84907 9.06643 9.75262 9.02066 9.66438L7.02066 5.66437C6.95833 5.5399 6.86259 5.43523 6.74415 5.36207C6.62571 5.28892 6.48925 5.25018 6.35004 5.25018C6.21083 5.25018 6.07436 5.28892 5.95592 5.36207C5.83748 5.43523 5.74174 5.5399 5.67941 5.66437L3.67941 9.66438C3.59042 9.84224 3.57572 10.0482 3.63854 10.2369C3.70136 10.4256 3.83657 10.5816 4.01441 10.6706ZM6.76129 8.5H5.93879L6.35004 7.67688L6.76129 8.5ZM9.10004 8C9.10004 7.80109 9.17905 7.61032 9.31971 7.46967C9.46036 7.32902 9.65112 7.25 9.85004 7.25H10.1V7C10.1 6.80109 10.1791 6.61032 10.3197 6.46967C10.4604 6.32902 10.6511 6.25 10.85 6.25C11.0489 6.25 11.2397 6.32902 11.3804 6.46967C11.521 6.61032 11.6 6.80109 11.6 7V7.25H11.85C12.0489 7.25 12.2397 7.32902 12.3804 7.46967C12.521 7.61032 12.6 7.80109 12.6 8C12.6 8.19891 12.521 8.38968 12.3804 8.53033C12.2397 8.67098 12.0489 8.75 11.85 8.75H11.6V9C11.6 9.19891 11.521 9.38968 11.3804 9.53033C11.2397 9.67098 11.0489 9.75 10.85 9.75C10.6511 9.75 10.4604 9.67098 10.3197 9.53033C10.1791 9.38968 10.1 9.19891 10.1 9V8.75H9.85004C9.65112 8.75 9.46036 8.67098 9.31971 8.53033C9.17905 8.38968 9.10004 8.19891 9.10004 8Z" fill="white"/>
</svg>
