<svg width="17" height="16" viewBox="0 0 17 16" fill="none" xmlns="http://www.w3.org/2000/svg">
<g clip-path="url(#clip0_1_1164)">
<path d="M8.15767 0.571411H15.36C15.896 0.571411 16.3302 1.0057 16.3302 1.5417V9.28798C16.3302 9.82513 15.896 10.2594 15.36 10.2594H9.47195M4.49938 4.57255C5.02997 4.57255 5.53882 4.36178 5.914 3.9866C6.28918 3.61142 6.49995 3.10257 6.49995 2.57198C6.49995 2.0414 6.28918 1.53254 5.914 1.15737C5.53882 0.782185 5.02997 0.571411 4.49938 0.571411C3.9688 0.571411 3.45994 0.782185 3.08476 1.15737C2.70958 1.53254 2.49881 2.0414 2.49881 2.57198C2.49881 3.10257 2.70958 3.61142 3.08476 3.9866C3.45994 4.36178 3.9688 4.57255 4.49938 4.57255Z" stroke="white" stroke-linecap="round" stroke-linejoin="round"/>
<path d="M11.1858 6.31654C11.1858 5.66854 10.66 5.14282 10.012 5.14282H4.49889C3.69606 5.14313 2.9262 5.46218 2.35851 6.02987C1.79083 6.59756 1.47177 7.36742 1.47147 8.17025V10.8571H2.76861L3.20175 15.4285H5.79604L6.79261 7.49139H10.012C10.66 7.49139 11.1858 6.96568 11.1858 6.31654Z" stroke="white" stroke-linecap="round" stroke-linejoin="round"/>
</g>
<defs>
<clipPath id="clip0_1_1164">
<rect width="16" height="16" fill="white" transform="translate(0.900024)"/>
</clipPath>
</defs>
</svg>
