<svg width="15" height="16" viewBox="0 0 15 16" fill="none" xmlns="http://www.w3.org/2000/svg">
<path d="M3.75 14.25H13.125V13H3.7575C3.46875 12.9925 3.125 12.8781 3.125 12.375C3.125 11.8719 3.46875 11.7575 3.7575 11.75H13.125V3C13.125 2.31062 12.5644 1.75 11.875 1.75H3.75C2.99625 1.75 1.875 2.24938 1.875 3.625V12.375C1.875 13.7506 2.99625 14.25 3.75 14.25ZM3.125 5.5V3.625C3.125 3.12188 3.46875 3.0075 3.75 3H11.875V10.5H3.125V5.5Z" fill="white"/>
<path d="M4.99969 4.25H10.6247V5.5H4.99969V4.25Z" fill="white"/>
</svg>
